# xmcd
#
# Track frame offsets:
#	150
#	16246
#	28781
#	41614
#	54583
#	67718
#	84490
#	96694
#	108382
#	125997
#	142321
#	159671
#	171564
#	181765
#	195693
#	212024
#	225377
#	242439
#	252178
#	263642
#	275698
#	286622
#
# Disc length: 4036 seconds
#
# Revision: 1
# Processed by: cddbd v1.5.1PL0 Copyright (c) Steve Scherf et al.
# Submitted via: audiograbber 1.83.01
#
DISCID=3e0fc216
DTITLE=Chantal Hamel - Mes plus grands succès
DYEAR=2004
DGENRE=Québécois
TTITLE0=Avec sa Harley (version country)
TTITLE1=Un rêve la Louisiane
TTITLE2=La cabane en bois
TTITLE3=L'hiver de par chez nous
TTITLE4=Femme libérée
TTITLE5=Mon coeur s'est endurci
TTITLE6=Partir en tournée
TTITLE7=Pour vous mes amis
TTITLE8=Les enfants au coeur brisé
TTITLE9=Ne perds pas la cadence
TTITLE10=Réponds à ma question
TTITLE11=Wo ! Wo ! Ti-Gars
TTITLE12=Mon champion
TTITLE13=Oh non jamais
TTITLE14=Mon amour
TTITLE15=Emmène -moi danser ce soir
TTITLE16=Toi maman
TTITLE17=Un bon matin
TTITLE18=Country girl
TTITLE19=Une mauvaise journée
TTITLE20=Baby baby baby
TTITLE21=Avec sa Harley (version rock)
EXTD=
EXTT0=
EXTT1=
EXTT2=
EXTT3=
EXTT4=
EXTT5=
EXTT6=
EXTT7=
EXTT8=
EXTT9=
EXTT10=
EXTT11=
EXTT12=
EXTT13=
EXTT14=
EXTT15=
EXTT16=
EXTT17=
EXTT18=
EXTT19=
EXTT20=
EXTT21=
PLAYORDER=
